<mxfile host="app.diagrams.net" agent="Mozilla/5.0 (Windows NT 10.0; Win64; x64; rv:133.0) Gecko/20100101 Firefox/133.0" version="26.0.4">
  <diagram name="Page-1" id="LoJV06vB8Zq0_aZnyoDJ">
    <mxGraphModel dx="739" dy="968" grid="1" gridSize="10" guides="1" tooltips="1" connect="1" arrows="1" fold="1" page="1" pageScale="1" pageWidth="827" pageHeight="1169" background="none" math="0" shadow="0">
      <root>
        <mxCell id="0" />
        <mxCell id="1" parent="0" />
        <mxCell id="UfdmuZ-kfko3vVcRpHzJ-14" value="&lt;font color=&quot;#6666ff&quot;&gt;Library&lt;/font&gt;" style="shape=table;startSize=30;container=1;collapsible=1;childLayout=tableLayout;fixedRows=1;rowLines=0;fontStyle=1;align=center;resizeLast=1;html=1;labelBackgroundColor=none;rounded=0;sketch=1;curveFitting=1;jiggle=2;movable=1;resizable=1;rotatable=1;deletable=1;editable=1;locked=0;connectable=1;flipH=0;flipV=0;" parent="1" vertex="1">
          <mxGeometry x="430" y="60" width="250" height="220" as="geometry">
            <mxRectangle x="41" y="42" width="70" height="30" as="alternateBounds" />
          </mxGeometry>
        </mxCell>
        <mxCell id="UfdmuZ-kfko3vVcRpHzJ-15" value="" style="shape=tableRow;horizontal=0;startSize=0;swimlaneHead=0;swimlaneBody=0;fillColor=none;collapsible=0;dropTarget=0;points=[[0,0.5],[1,0.5]];portConstraint=eastwest;top=0;left=0;right=0;bottom=1;labelBackgroundColor=none;rounded=0;sketch=1;curveFitting=1;jiggle=2;movable=1;resizable=1;rotatable=1;deletable=1;editable=1;locked=0;connectable=1;" parent="UfdmuZ-kfko3vVcRpHzJ-14" vertex="1">
          <mxGeometry y="30" width="250" height="30" as="geometry" />
        </mxCell>
        <mxCell id="UfdmuZ-kfko3vVcRpHzJ-16" value="type" style="shape=partialRectangle;connectable=1;fillColor=none;top=0;left=0;bottom=0;right=0;fontStyle=5;overflow=hidden;whiteSpace=wrap;html=1;labelBackgroundColor=none;rounded=0;sketch=1;curveFitting=1;jiggle=2;movable=1;resizable=1;rotatable=1;deletable=1;editable=1;locked=0;" parent="UfdmuZ-kfko3vVcRpHzJ-15" vertex="1">
          <mxGeometry width="90" height="30" as="geometry">
            <mxRectangle width="90" height="30" as="alternateBounds" />
          </mxGeometry>
        </mxCell>
        <mxCell id="UfdmuZ-kfko3vVcRpHzJ-17" value="properties" style="shape=partialRectangle;connectable=1;fillColor=none;top=0;left=0;bottom=0;right=0;align=left;spacingLeft=6;fontStyle=1;overflow=hidden;whiteSpace=wrap;html=1;labelBackgroundColor=none;rounded=0;sketch=1;curveFitting=1;jiggle=2;movable=1;resizable=1;rotatable=1;deletable=1;editable=1;locked=0;" parent="UfdmuZ-kfko3vVcRpHzJ-15" vertex="1">
          <mxGeometry x="90" width="160" height="30" as="geometry">
            <mxRectangle width="160" height="30" as="alternateBounds" />
          </mxGeometry>
        </mxCell>
        <mxCell id="UfdmuZ-kfko3vVcRpHzJ-18" value="" style="shape=tableRow;horizontal=0;startSize=0;swimlaneHead=0;swimlaneBody=0;fillColor=none;collapsible=0;dropTarget=0;points=[[0,0.5],[1,0.5]];portConstraint=eastwest;top=0;left=0;right=0;bottom=0;labelBackgroundColor=none;rounded=0;sketch=1;curveFitting=1;jiggle=2;movable=1;resizable=1;rotatable=1;deletable=1;editable=1;locked=0;connectable=1;" parent="UfdmuZ-kfko3vVcRpHzJ-14" vertex="1">
          <mxGeometry y="60" width="250" height="28" as="geometry" />
        </mxCell>
        <mxCell id="UfdmuZ-kfko3vVcRpHzJ-19" value="&lt;font color=&quot;#85700b&quot;&gt;Array&amp;lt;&lt;/font&gt;&lt;font color=&quot;#6666ff&quot;&gt;Book&lt;/font&gt;&lt;font color=&quot;#85700b&quot;&gt;&amp;gt;&lt;/font&gt;" style="shape=partialRectangle;connectable=1;fillColor=none;top=0;left=0;bottom=0;right=0;editable=1;overflow=hidden;whiteSpace=wrap;html=1;labelBackgroundColor=none;rounded=0;sketch=1;curveFitting=1;jiggle=2;movable=1;resizable=1;rotatable=1;deletable=1;locked=0;" parent="UfdmuZ-kfko3vVcRpHzJ-18" vertex="1">
          <mxGeometry width="90" height="28" as="geometry">
            <mxRectangle width="90" height="28" as="alternateBounds" />
          </mxGeometry>
        </mxCell>
        <mxCell id="UfdmuZ-kfko3vVcRpHzJ-20" value="books" style="shape=partialRectangle;connectable=1;fillColor=none;top=0;left=0;bottom=0;right=0;align=left;spacingLeft=6;overflow=hidden;whiteSpace=wrap;html=1;labelBackgroundColor=none;rounded=0;sketch=1;curveFitting=1;jiggle=2;fontColor=#FF3333;movable=1;resizable=1;rotatable=1;deletable=1;editable=1;locked=0;" parent="UfdmuZ-kfko3vVcRpHzJ-18" vertex="1">
          <mxGeometry x="90" width="160" height="28" as="geometry">
            <mxRectangle width="160" height="28" as="alternateBounds" />
          </mxGeometry>
        </mxCell>
        <mxCell id="UfdmuZ-kfko3vVcRpHzJ-37" value="" style="endArrow=none;html=1;rounded=0;sketch=1;hachureGap=4;jiggle=2;curveFitting=1;fontFamily=Architects Daughter;fontSource=https%3A%2F%2Ffonts.googleapis.com%2Fcss%3Ffamily%3DArchitects%2BDaughter;fontSize=16;entryX=1;entryY=1.076;entryDx=0;entryDy=0;entryPerimeter=0;movable=1;resizable=1;rotatable=1;deletable=1;editable=1;locked=0;connectable=1;" parent="1" target="UfdmuZ-kfko3vVcRpHzJ-18" edge="1">
          <mxGeometry width="50" height="50" relative="1" as="geometry">
            <mxPoint x="430" y="150" as="sourcePoint" />
            <mxPoint x="550" y="150" as="targetPoint" />
          </mxGeometry>
        </mxCell>
        <mxCell id="UfdmuZ-kfko3vVcRpHzJ-40" value="methods" style="shape=partialRectangle;connectable=1;fillColor=none;top=0;left=0;bottom=0;right=0;align=center;spacingLeft=6;fontStyle=1;overflow=hidden;whiteSpace=wrap;html=1;labelBackgroundColor=none;rounded=0;sketch=1;curveFitting=1;jiggle=2;movable=1;resizable=1;rotatable=1;deletable=1;editable=1;locked=0;" parent="1" vertex="1">
          <mxGeometry x="430" y="150" width="250" height="30" as="geometry">
            <mxRectangle width="209" height="30" as="alternateBounds" />
          </mxGeometry>
        </mxCell>
        <mxCell id="UfdmuZ-kfko3vVcRpHzJ-46" value="" style="line;strokeWidth=2;html=1;sketch=1;hachureGap=4;jiggle=2;curveFitting=1;fontFamily=Architects Daughter;fontSource=https%3A%2F%2Ffonts.googleapis.com%2Fcss%3Ffamily%3DArchitects%2BDaughter;fontSize=20;movable=1;resizable=1;rotatable=1;deletable=1;editable=1;locked=0;connectable=1;" parent="1" vertex="1">
          <mxGeometry x="430" y="180" width="250" height="10" as="geometry" />
        </mxCell>
        <mxCell id="UfdmuZ-kfko3vVcRpHzJ-55" value="&lt;font color=&quot;#85700b&quot;&gt;void&lt;/font&gt;" style="shape=partialRectangle;connectable=1;fillColor=none;top=0;left=0;bottom=0;right=0;editable=1;overflow=hidden;whiteSpace=wrap;html=1;labelBackgroundColor=none;rounded=0;sketch=1;curveFitting=1;jiggle=2;align=right;strokeColor=default;aspect=fixed;movable=1;resizable=1;rotatable=1;deletable=1;locked=0;" parent="1" vertex="1">
          <mxGeometry x="430" y="194" width="90" height="20" as="geometry">
            <mxRectangle width="90" height="28" as="alternateBounds" />
          </mxGeometry>
        </mxCell>
        <mxCell id="UfdmuZ-kfko3vVcRpHzJ-56" value="&lt;font color=&quot;#007fff&quot;&gt;addBook&lt;/font&gt;(&lt;font color=&quot;#6666ff&quot;&gt;Book&lt;/font&gt;)" style="shape=partialRectangle;connectable=1;fillColor=none;top=0;left=0;bottom=0;right=0;align=left;spacingLeft=6;overflow=hidden;whiteSpace=wrap;html=1;labelBackgroundColor=none;rounded=0;sketch=1;curveFitting=1;jiggle=2;fontColor=#FF3333;strokeColor=default;aspect=fixed;movable=1;resizable=1;rotatable=1;deletable=1;editable=1;locked=0;" parent="1" vertex="1">
          <mxGeometry x="530" y="194" width="150" height="20" as="geometry">
            <mxRectangle width="210" height="28" as="alternateBounds" />
          </mxGeometry>
        </mxCell>
        <mxCell id="UfdmuZ-kfko3vVcRpHzJ-57" value="" style="line;strokeWidth=2;direction=south;html=1;sketch=1;hachureGap=4;jiggle=2;curveFitting=1;fontFamily=Architects Daughter;fontSource=https%3A%2F%2Ffonts.googleapis.com%2Fcss%3Ffamily%3DArchitects%2BDaughter;fontSize=20;movable=1;resizable=1;rotatable=1;deletable=1;editable=1;locked=0;connectable=1;" parent="1" vertex="1">
          <mxGeometry x="520" y="180" width="10" height="100" as="geometry" />
        </mxCell>
        <mxCell id="UfdmuZ-kfko3vVcRpHzJ-58" value="&lt;font color=&quot;#85700b&quot;&gt;Array&amp;lt;&lt;/font&gt;&lt;font color=&quot;#6666ff&quot;&gt;Book&lt;/font&gt;&lt;font color=&quot;#85700b&quot;&gt;&amp;gt;&lt;/font&gt;" style="shape=partialRectangle;connectable=1;fillColor=none;top=0;left=0;bottom=0;right=0;editable=1;overflow=hidden;whiteSpace=wrap;html=1;labelBackgroundColor=none;rounded=0;sketch=1;curveFitting=1;jiggle=2;align=right;strokeColor=default;aspect=fixed;movable=1;resizable=1;rotatable=1;deletable=1;locked=0;" parent="1" vertex="1">
          <mxGeometry x="430" y="209" width="90" height="20" as="geometry">
            <mxRectangle width="90" height="28" as="alternateBounds" />
          </mxGeometry>
        </mxCell>
        <mxCell id="UfdmuZ-kfko3vVcRpHzJ-59" value="&lt;font color=&quot;#007fff&quot;&gt;allBooks&lt;/font&gt;()" style="shape=partialRectangle;connectable=1;fillColor=none;top=0;left=0;bottom=0;right=0;align=left;spacingLeft=6;overflow=hidden;whiteSpace=wrap;html=1;labelBackgroundColor=none;rounded=0;sketch=1;curveFitting=1;jiggle=2;fontColor=#FF3333;strokeColor=default;aspect=fixed;movable=1;resizable=1;rotatable=1;deletable=1;editable=1;locked=0;" parent="1" vertex="1">
          <mxGeometry x="530" y="209" width="150" height="20" as="geometry">
            <mxRectangle width="210" height="28" as="alternateBounds" />
          </mxGeometry>
        </mxCell>
        <mxCell id="UfdmuZ-kfko3vVcRpHzJ-60" value="&lt;font color=&quot;#85700b&quot;&gt;boolean&lt;/font&gt;" style="shape=partialRectangle;connectable=1;fillColor=none;top=0;left=0;bottom=0;right=0;editable=1;overflow=hidden;whiteSpace=wrap;html=1;labelBackgroundColor=none;rounded=0;sketch=1;curveFitting=1;jiggle=2;align=right;strokeColor=default;aspect=fixed;movable=1;resizable=1;rotatable=1;deletable=1;locked=0;" parent="1" vertex="1">
          <mxGeometry x="430" y="237" width="90" height="20" as="geometry">
            <mxRectangle width="90" height="28" as="alternateBounds" />
          </mxGeometry>
        </mxCell>
        <mxCell id="UfdmuZ-kfko3vVcRpHzJ-61" value="&lt;font color=&quot;#007fff&quot;&gt;borrowBook&lt;/font&gt;(ibsn)" style="shape=partialRectangle;connectable=1;fillColor=none;top=0;left=0;bottom=0;right=0;align=left;spacingLeft=6;overflow=hidden;whiteSpace=wrap;html=1;labelBackgroundColor=none;rounded=0;sketch=1;curveFitting=1;jiggle=2;fontColor=#FF3333;strokeColor=default;aspect=fixed;movable=1;resizable=1;rotatable=1;deletable=1;editable=1;locked=0;" parent="1" vertex="1">
          <mxGeometry x="530" y="237" width="150" height="20" as="geometry">
            <mxRectangle width="210" height="28" as="alternateBounds" />
          </mxGeometry>
        </mxCell>
        <mxCell id="UfdmuZ-kfko3vVcRpHzJ-62" value="&lt;font color=&quot;#85700b&quot;&gt;boolean&lt;/font&gt;" style="shape=partialRectangle;connectable=1;fillColor=none;top=0;left=0;bottom=0;right=0;editable=1;overflow=hidden;whiteSpace=wrap;html=1;labelBackgroundColor=none;rounded=0;sketch=1;curveFitting=1;jiggle=2;align=right;strokeColor=default;aspect=fixed;movable=1;resizable=1;rotatable=1;deletable=1;locked=0;" parent="1" vertex="1">
          <mxGeometry x="430" y="250" width="90" height="20" as="geometry">
            <mxRectangle width="90" height="28" as="alternateBounds" />
          </mxGeometry>
        </mxCell>
        <mxCell id="UfdmuZ-kfko3vVcRpHzJ-63" value="&lt;font color=&quot;#007fff&quot;&gt;returnsBook&lt;/font&gt;(ibsn)" style="shape=partialRectangle;connectable=1;fillColor=none;top=0;left=0;bottom=0;right=0;align=left;spacingLeft=6;overflow=hidden;whiteSpace=wrap;html=1;labelBackgroundColor=none;rounded=0;sketch=1;curveFitting=1;jiggle=2;fontColor=#FF3333;strokeColor=default;aspect=fixed;movable=1;resizable=1;rotatable=1;deletable=1;editable=1;locked=0;" parent="1" vertex="1">
          <mxGeometry x="530" y="250" width="150" height="20" as="geometry">
            <mxRectangle width="210" height="28" as="alternateBounds" />
          </mxGeometry>
        </mxCell>
        <mxCell id="UfdmuZ-kfko3vVcRpHzJ-65" value="&lt;font color=&quot;#85700b&quot;&gt;Array&amp;lt;&lt;/font&gt;&lt;font color=&quot;#6666ff&quot;&gt;Book&lt;/font&gt;&lt;font color=&quot;#85700b&quot;&gt;&amp;gt;&lt;/font&gt;" style="shape=partialRectangle;connectable=1;fillColor=none;top=0;left=0;bottom=0;right=0;editable=1;overflow=hidden;whiteSpace=wrap;html=1;labelBackgroundColor=none;rounded=0;sketch=1;curveFitting=1;jiggle=2;align=right;strokeColor=default;aspect=fixed;movable=1;resizable=1;rotatable=1;deletable=1;locked=0;" parent="1" vertex="1">
          <mxGeometry x="430" y="224" width="90" height="20" as="geometry">
            <mxRectangle width="90" height="28" as="alternateBounds" />
          </mxGeometry>
        </mxCell>
        <mxCell id="UfdmuZ-kfko3vVcRpHzJ-66" value="&lt;font color=&quot;#007fff&quot;&gt;availableBooks&lt;/font&gt;()" style="shape=partialRectangle;connectable=1;fillColor=none;top=0;left=0;bottom=0;right=0;align=left;spacingLeft=6;overflow=hidden;whiteSpace=wrap;html=1;labelBackgroundColor=none;rounded=0;sketch=1;curveFitting=1;jiggle=2;fontColor=#FF3333;strokeColor=default;aspect=fixed;movable=1;resizable=1;rotatable=1;deletable=1;editable=1;locked=0;" parent="1" vertex="1">
          <mxGeometry x="530" y="224" width="150" height="20" as="geometry">
            <mxRectangle width="210" height="28" as="alternateBounds" />
          </mxGeometry>
        </mxCell>
        <mxCell id="UfdmuZ-kfko3vVcRpHzJ-119" value="" style="edgeStyle=orthogonalEdgeStyle;rounded=1;sketch=1;hachureGap=4;jiggle=2;curveFitting=1;orthogonalLoop=1;jettySize=auto;html=1;fontFamily=Architects Daughter;fontSource=https%3A%2F%2Ffonts.googleapis.com%2Fcss%3Ffamily%3DArchitects%2BDaughter;fontSize=16;dashed=1;strokeWidth=3;fillColor=#dae8fc;strokeColor=#6c8ebf;" parent="1" target="UfdmuZ-kfko3vVcRpHzJ-111" edge="1">
          <mxGeometry relative="1" as="geometry">
            <mxPoint x="156.00000000000023" y="862" as="sourcePoint" />
            <Array as="points">
              <mxPoint x="156" y="892" />
              <mxPoint x="336" y="892" />
              <mxPoint x="336" y="822" />
            </Array>
          </mxGeometry>
        </mxCell>
        <mxCell id="UfdmuZ-kfko3vVcRpHzJ-72" value="Launch Library System" style="labelPosition=center;verticalLabelPosition=middle;align=center;html=1;shape=mxgraph.basic.button;dx=10;whiteSpace=wrap;hachureGap=4;fontFamily=Architects Daughter;fontSource=https%3A%2F%2Ffonts.googleapis.com%2Fcss%3Ffamily%3DArchitects%2BDaughter;fontSize=20;flipH=1;flipV=1;sketch=1;curveFitting=1;jiggle=2;shadow=0;fixedWidth=0;resizeWidth=0;fillColor=#dae8fc;gradientColor=#7ea6e0;strokeColor=#6c8ebf;" parent="1" vertex="1">
          <mxGeometry x="36" y="795" width="260" height="60" as="geometry" />
        </mxCell>
        <mxCell id="UfdmuZ-kfko3vVcRpHzJ-73" value="Plans" style="text;html=1;align=center;verticalAlign=middle;resizable=0;points=[];autosize=1;strokeColor=none;fillColor=none;fontSize=20;fontFamily=Architects Daughter;fontStyle=1" parent="1" vertex="1">
          <mxGeometry x="373" y="3" width="70" height="40" as="geometry" />
        </mxCell>
        <mxCell id="UfdmuZ-kfko3vVcRpHzJ-76" value="Rendu HTML" style="text;html=1;align=center;verticalAlign=middle;resizable=0;points=[];autosize=1;strokeColor=none;fillColor=none;fontSize=20;fontFamily=Architects Daughter;fontStyle=1" parent="1" vertex="1">
          <mxGeometry x="339" y="706" width="150" height="40" as="geometry" />
        </mxCell>
        <mxCell id="UfdmuZ-kfko3vVcRpHzJ-123" value="" style="edgeStyle=orthogonalEdgeStyle;sketch=1;hachureGap=4;jiggle=2;curveFitting=1;orthogonalLoop=1;jettySize=auto;html=1;fontFamily=Architects Daughter;fontSource=https%3A%2F%2Ffonts.googleapis.com%2Fcss%3Ffamily%3DArchitects%2BDaughter;fontSize=16;curved=1;dashed=1;strokeWidth=3;fillColor=#d5e8d4;strokeColor=#82b366;" parent="1" edge="1" target="UfdmuZ-kfko3vVcRpHzJ-122">
          <mxGeometry relative="1" as="geometry">
            <mxPoint x="720" y="910" as="targetPoint" />
            <Array as="points">
              <mxPoint x="546" y="822" />
              <mxPoint x="546" y="930" />
              <mxPoint x="690" y="930" />
              <mxPoint x="690" y="920" />
              <mxPoint x="730" y="920" />
            </Array>
            <mxPoint x="520" y="822" as="sourcePoint" />
          </mxGeometry>
        </mxCell>
        <mxCell id="UfdmuZ-kfko3vVcRpHzJ-111" value="onclick event" style="html=1;shape=mxgraph.infographic.ribbonSimple;notch1=20;notch2=0;align=center;verticalAlign=middle;fontSize=14;fontStyle=0;fillColor=#d5e8d4;flipH=0;spacingRight=0;spacingLeft=14;whiteSpace=wrap;sketch=1;hachureGap=4;jiggle=2;curveFitting=1;fontFamily=Architects Daughter;fontSource=https%3A%2F%2Ffonts.googleapis.com%2Fcss%3Ffamily%3DArchitects%2BDaughter;strokeColor=#82b366;textShadow=1;" parent="1" vertex="1">
          <mxGeometry x="386" y="802" width="120" height="40" as="geometry" />
        </mxCell>
        <mxCell id="UfdmuZ-kfko3vVcRpHzJ-122" value="&lt;font style=&quot;font-size: 17px;&quot; color=&quot;#007fff&quot;&gt;launchLibrarySystem&lt;/font&gt;" style="ellipse;shape=cloud;whiteSpace=wrap;html=1;fontSize=14;fontFamily=Architects Daughter;fillColor=#f8cecc;strokeColor=#b85450;fontStyle=0;spacingRight=0;spacingLeft=14;sketch=1;hachureGap=4;jiggle=2;curveFitting=1;fontSource=https%3A%2F%2Ffonts.googleapis.com%2Fcss%3Ffamily%3DArchitects%2BDaughter;textShadow=1;labelBorderColor=none;labelBackgroundColor=none;" parent="1" vertex="1">
          <mxGeometry x="546" y="802" width="270" height="80" as="geometry" />
        </mxCell>
        <mxCell id="UfdmuZ-kfko3vVcRpHzJ-135" value="Evenement" style="text;html=1;align=center;verticalAlign=middle;resizable=0;points=[];autosize=1;strokeColor=none;fillColor=none;fontSize=20;fontFamily=Architects Daughter;fontStyle=1" parent="1" vertex="1">
          <mxGeometry x="355" y="342" width="130" height="40" as="geometry" />
        </mxCell>
        <mxCell id="UfdmuZ-kfko3vVcRpHzJ-161" value="" style="edgeStyle=orthogonalEdgeStyle;rounded=0;sketch=1;hachureGap=4;jiggle=2;curveFitting=1;orthogonalLoop=1;jettySize=auto;html=1;fontFamily=Architects Daughter;fontSource=https%3A%2F%2Ffonts.googleapis.com%2Fcss%3Ffamily%3DArchitects%2BDaughter;fontSize=16;exitX=0;exitY=0.5;exitDx=0;exitDy=0;entryX=0;entryY=0.4;entryDx=0;entryDy=0;entryPerimeter=0;fillColor=#647687;strokeColor=#314354;curved=1;" parent="1" source="UfdmuZ-kfko3vVcRpHzJ-136" target="UfdmuZ-kfko3vVcRpHzJ-153" edge="1">
          <mxGeometry relative="1" as="geometry">
            <mxPoint x="16" y="422" as="sourcePoint" />
            <mxPoint x="326" y="912" as="targetPoint" />
            <Array as="points">
              <mxPoint x="16" y="422" />
              <mxPoint x="16" y="1012" />
              <mxPoint x="290" y="1012" />
              <mxPoint x="290" y="1010" />
              <mxPoint x="330" y="1010" />
              <mxPoint x="330" y="1018" />
            </Array>
          </mxGeometry>
        </mxCell>
        <mxCell id="UfdmuZ-kfko3vVcRpHzJ-136" value="&lt;font style=&quot;font-size: 14px; color: rgb(255, 21, 81);&quot;&gt;function&lt;/font&gt;&lt;font style=&quot;font-size: 14px;&quot; color=&quot;#007fff&quot;&gt; launchLibrarySystem&lt;/font&gt;&lt;font style=&quot;font-size: 14px;&quot;&gt;(&lt;u&gt;&lt;span style=&quot;color: rgb(102, 102, 255);&quot;&gt;Event&lt;/span&gt;&lt;/u&gt;) { ... }&lt;/font&gt;" style="shape=process;whiteSpace=wrap;html=1;backgroundOutline=1;sketch=1;hachureGap=4;jiggle=2;curveFitting=1;fontFamily=Architects Daughter;fontSource=https%3A%2F%2Ffonts.googleapis.com%2Fcss%3Ffamily%3DArchitects%2BDaughter;fontSize=20;" parent="1" vertex="1">
          <mxGeometry x="26" y="392" width="390" height="60" as="geometry" />
        </mxCell>
        <mxCell id="UfdmuZ-kfko3vVcRpHzJ-144" value="" style="edgeStyle=orthogonalEdgeStyle;sketch=1;hachureGap=4;jiggle=2;curveFitting=1;orthogonalLoop=1;jettySize=auto;html=1;fontFamily=Architects Daughter;fontSource=https%3A%2F%2Ffonts.googleapis.com%2Fcss%3Ffamily%3DArchitects%2BDaughter;fontSize=16;curved=1;dashed=1;strokeWidth=3;exitX=0.552;exitY=0.071;exitDx=0;exitDy=0;exitPerimeter=0;entryX=1;entryY=0.5;entryDx=0;entryDy=0;fillColor=#f8cecc;strokeColor=#b85450;" parent="1" target="UfdmuZ-kfko3vVcRpHzJ-136" edge="1">
          <mxGeometry relative="1" as="geometry">
            <mxPoint x="739.5300000000002" y="807.6800000000001" as="sourcePoint" />
            <mxPoint x="460.49" y="427.6399999999999" as="targetPoint" />
            <Array as="points">
              <mxPoint x="749" y="808" />
              <mxPoint x="749" y="536" />
              <mxPoint x="681" y="536" />
              <mxPoint x="681" y="422" />
            </Array>
          </mxGeometry>
        </mxCell>
        <mxCell id="dZP9JO7o1C7DPY67EZml-16" value="la fonction est appelée" style="edgeLabel;html=1;align=center;verticalAlign=middle;resizable=0;points=[];sketch=1;hachureGap=4;jiggle=2;curveFitting=1;fontFamily=Architects Daughter;fontSource=https%3A%2F%2Ffonts.googleapis.com%2Fcss%3Ffamily%3DArchitects%2BDaughter;rotation=71;labelBorderColor=#FF1551;textShadow=1;spacingLeft=0;spacingTop=0;" vertex="1" connectable="0" parent="UfdmuZ-kfko3vVcRpHzJ-144">
          <mxGeometry x="-0.45" y="2" relative="1" as="geometry">
            <mxPoint as="offset" />
          </mxGeometry>
        </mxCell>
        <mxCell id="UfdmuZ-kfko3vVcRpHzJ-153" value="" style="html=1;shadow=0;dashed=0;shape=mxgraph.ios.fancyRRect;rSize=8;strokeColor=#dddddd;fillColor=#497198;gradientColor=#193168;opacity=80;fontColor=#ffffff;fontSize=8;whiteSpace=wrap;align=center;sketch=0;hachureGap=4;pointerEvents=0;fontFamily=Helvetica;jiggle=2;curveFitting=1;fontSource=https%3A%2F%2Ffonts.googleapis.com%2Fcss%3Ffamily%3DArchitects%2BDaughter;" parent="1" vertex="1">
          <mxGeometry x="356" y="942" width="150" height="190" as="geometry" />
        </mxCell>
        <mxCell id="UfdmuZ-kfko3vVcRpHzJ-154" value="&lt;br&gt;Home Library&lt;br&gt;Actions" style="html=1;shadow=0;dashed=0;shape=mxgraph.ios.anchor;fontSize=12;fontColor=#ffffff;whiteSpace=wrap;resizeWidth=1;sketch=0;hachureGap=4;pointerEvents=0;fontFamily=Helvetica;jiggle=2;curveFitting=1;fontSource=https%3A%2F%2Ffonts.googleapis.com%2Fcss%3Ffamily%3DArchitects%2BDaughter;" parent="UfdmuZ-kfko3vVcRpHzJ-153" vertex="1">
          <mxGeometry width="150" height="25" relative="1" as="geometry" />
        </mxCell>
        <mxCell id="UfdmuZ-kfko3vVcRpHzJ-155" value="Ok" style="html=1;shadow=0;dashed=0;shape=mxgraph.ios.rrect;rSize=3;fontSize=8;strokeColor=#6c8ebf;fillColor=#dae8fc;opacity=80;whiteSpace=wrap;sketch=0;hachureGap=4;pointerEvents=0;fontFamily=Helvetica;jiggle=2;curveFitting=1;fontSource=https%3A%2F%2Ffonts.googleapis.com%2Fcss%3Ffamily%3DArchitects%2BDaughter;" parent="UfdmuZ-kfko3vVcRpHzJ-153" vertex="1">
          <mxGeometry x="0.5" y="1" width="30.5" height="20" relative="1" as="geometry">
            <mxPoint x="-4" y="-25" as="offset" />
          </mxGeometry>
        </mxCell>
        <mxCell id="UfdmuZ-kfko3vVcRpHzJ-167" value="&lt;ol style=&quot;font-size: 8px;&quot;&gt;&lt;li style=&quot;font-size: 8px;&quot;&gt;&lt;font color=&quot;#d4e1f5&quot; style=&quot;font-size: 8px;&quot;&gt;Add a new book&lt;/font&gt;&lt;/li&gt;&lt;li style=&quot;font-size: 8px;&quot;&gt;&lt;font color=&quot;#d4e1f5&quot; style=&quot;font-size: 8px;&quot;&gt;List all books&lt;br style=&quot;font-size: 8px;&quot;&gt;&lt;/font&gt;&lt;/li&gt;&lt;li style=&quot;font-size: 8px;&quot;&gt;&lt;font color=&quot;#d4e1f5&quot; style=&quot;font-size: 8px;&quot;&gt;Borrow a book&lt;/font&gt;&lt;/li&gt;&lt;li style=&quot;font-size: 8px;&quot;&gt;&lt;font color=&quot;#d4e1f5&quot; style=&quot;font-size: 8px;&quot;&gt;Return a book&lt;/font&gt;&lt;/li&gt;&lt;li style=&quot;font-size: 8px;&quot;&gt;&lt;font color=&quot;#d4e1f5&quot; style=&quot;font-size: 8px;&quot;&gt;List available books&lt;/font&gt;&lt;/li&gt;&lt;li style=&quot;font-size: 8px;&quot;&gt;&lt;font color=&quot;#d4e1f5&quot; style=&quot;font-size: 8px;&quot;&gt;Exit&lt;br style=&quot;font-size: 8px;&quot;&gt;&lt;/font&gt;&lt;/li&gt;&lt;/ol&gt;" style="text;strokeColor=none;fillColor=none;html=1;whiteSpace=wrap;verticalAlign=middle;overflow=hidden;fontSize=8;fontFamily=Helvetica;fontColor=#000000;align=left;" parent="UfdmuZ-kfko3vVcRpHzJ-153" vertex="1">
          <mxGeometry x="1" y="34" width="149" height="76" as="geometry" />
        </mxCell>
        <mxCell id="UfdmuZ-kfko3vVcRpHzJ-178" value="Enter your Choice&#xa;" style="rounded=1;hachureGap=4;fontFamily=Tahoma;fontSize=10;align=center;whiteSpace=wrap;spacingTop=9;spacingLeft=8;fontColor=#6666FF;" parent="UfdmuZ-kfko3vVcRpHzJ-153" vertex="1">
          <mxGeometry x="10" y="120" width="130" height="30" as="geometry" />
        </mxCell>
        <mxCell id="UfdmuZ-kfko3vVcRpHzJ-171" value="Annuler" style="html=1;shadow=0;dashed=0;shape=mxgraph.ios.rrect;rSize=3;fontSize=8;strokeColor=#b85450;fillColor=#f8cecc;opacity=80;whiteSpace=wrap;sketch=0;hachureGap=4;pointerEvents=0;fontFamily=Helvetica;jiggle=2;curveFitting=1;fontSource=https%3A%2F%2Ffonts.googleapis.com%2Fcss%3Ffamily%3DArchitects%2BDaughter;" parent="1" vertex="1">
          <mxGeometry x="465" y="1107" width="36" height="20" as="geometry" />
        </mxCell>
        <mxCell id="UfdmuZ-kfko3vVcRpHzJ-179" value="Actions" style="text;html=1;align=center;verticalAlign=middle;resizable=0;points=[];autosize=1;strokeColor=none;fillColor=none;fontSize=20;fontFamily=Architects Daughter;fontStyle=1" parent="1" vertex="1">
          <mxGeometry x="375" y="480" width="90" height="40" as="geometry" />
        </mxCell>
        <mxCell id="UfdmuZ-kfko3vVcRpHzJ-180" value="&lt;font style=&quot;font-size: 14px; color: rgb(255, 21, 81);&quot;&gt;function&lt;/font&gt;&lt;font style=&quot;font-size: 14px;&quot; color=&quot;#007fff&quot;&gt; addNewBook&lt;/font&gt;&lt;font style=&quot;font-size: 14px;&quot;&gt;() { ... }&lt;/font&gt;" style="shape=process;whiteSpace=wrap;html=1;backgroundOutline=1;sketch=1;hachureGap=4;jiggle=2;curveFitting=1;fontFamily=Architects Daughter;fontSource=https%3A%2F%2Ffonts.googleapis.com%2Fcss%3Ffamily%3DArchitects%2BDaughter;fontSize=20;" parent="1" vertex="1">
          <mxGeometry x="36" y="522" width="250" height="40" as="geometry" />
        </mxCell>
        <mxCell id="UfdmuZ-kfko3vVcRpHzJ-181" value="&lt;font style=&quot;font-size: 14px; color: rgb(255, 21, 81);&quot;&gt;function&lt;/font&gt;&lt;font style=&quot;font-size: 14px;&quot; color=&quot;#007fff&quot;&gt; listAllBooks&lt;/font&gt;&lt;font style=&quot;font-size: 14px;&quot;&gt;() { ... }&lt;/font&gt;" style="shape=process;whiteSpace=wrap;html=1;backgroundOutline=1;sketch=1;hachureGap=4;jiggle=2;curveFitting=1;fontFamily=Architects Daughter;fontSource=https%3A%2F%2Ffonts.googleapis.com%2Fcss%3Ffamily%3DArchitects%2BDaughter;fontSize=20;" parent="1" vertex="1">
          <mxGeometry x="38" y="572" width="250" height="40" as="geometry" />
        </mxCell>
        <mxCell id="UfdmuZ-kfko3vVcRpHzJ-182" value="&lt;font style=&quot;font-size: 14px; color: rgb(255, 21, 81);&quot;&gt;function&lt;/font&gt;&lt;font style=&quot;font-size: 14px;&quot; color=&quot;#007fff&quot;&gt; borrowBook&lt;/font&gt;&lt;font style=&quot;font-size: 14px;&quot;&gt;() { ... }&lt;/font&gt;" style="shape=process;whiteSpace=wrap;html=1;backgroundOutline=1;sketch=1;hachureGap=4;jiggle=2;curveFitting=1;fontFamily=Architects Daughter;fontSource=https%3A%2F%2Ffonts.googleapis.com%2Fcss%3Ffamily%3DArchitects%2BDaughter;fontSize=20;" parent="1" vertex="1">
          <mxGeometry x="38" y="626" width="250" height="40" as="geometry" />
        </mxCell>
        <mxCell id="UfdmuZ-kfko3vVcRpHzJ-183" value="&lt;font style=&quot;font-size: 14px; color: rgb(255, 21, 81);&quot;&gt;function&lt;/font&gt;&lt;font style=&quot;font-size: 14px;&quot; color=&quot;#007fff&quot;&gt; returnsBook&lt;/font&gt;&lt;font style=&quot;font-size: 14px;&quot;&gt;() { ... }&lt;/font&gt;" style="shape=process;whiteSpace=wrap;html=1;backgroundOutline=1;sketch=1;hachureGap=4;jiggle=2;curveFitting=1;fontFamily=Architects Daughter;fontSource=https%3A%2F%2Ffonts.googleapis.com%2Fcss%3Ffamily%3DArchitects%2BDaughter;fontSize=20;" parent="1" vertex="1">
          <mxGeometry x="308" y="523" width="308" height="40" as="geometry" />
        </mxCell>
        <mxCell id="UfdmuZ-kfko3vVcRpHzJ-184" value="&lt;font style=&quot;font-size: 14px; color: rgb(255, 21, 81);&quot;&gt;function&lt;/font&gt;&lt;font style=&quot;font-size: 14px;&quot; color=&quot;#007fff&quot;&gt; listAvailableBooks&lt;/font&gt;&lt;font style=&quot;font-size: 14px;&quot;&gt;() { ... }&lt;/font&gt;" style="shape=process;whiteSpace=wrap;html=1;backgroundOutline=1;sketch=1;hachureGap=4;jiggle=2;curveFitting=1;fontFamily=Architects Daughter;fontSource=https%3A%2F%2Ffonts.googleapis.com%2Fcss%3Ffamily%3DArchitects%2BDaughter;fontSize=20;" parent="1" vertex="1">
          <mxGeometry x="308" y="572" width="308" height="40" as="geometry" />
        </mxCell>
        <mxCell id="UfdmuZ-kfko3vVcRpHzJ-185" value="&lt;font style=&quot;font-size: 14px; color: rgb(255, 21, 81);&quot;&gt;function&lt;/font&gt;&lt;font style=&quot;font-size: 14px;&quot; color=&quot;#007fff&quot;&gt; exitLibrabySystem&lt;/font&gt;&lt;font style=&quot;font-size: 14px;&quot;&gt;() { ... }&lt;/font&gt;" style="shape=process;whiteSpace=wrap;html=1;backgroundOutline=1;sketch=1;hachureGap=4;jiggle=2;curveFitting=1;fontFamily=Architects Daughter;fontSource=https%3A%2F%2Ffonts.googleapis.com%2Fcss%3Ffamily%3DArchitects%2BDaughter;fontSize=20;" parent="1" vertex="1">
          <mxGeometry x="308" y="626" width="308" height="40" as="geometry" />
        </mxCell>
        <mxCell id="UfdmuZ-kfko3vVcRpHzJ-187" value="1" style="text;html=1;align=center;verticalAlign=middle;resizable=0;points=[];autosize=1;strokeColor=none;fillColor=none;fontSize=20;fontFamily=Helvetica;" parent="1" vertex="1">
          <mxGeometry x="36" y="522" width="30" height="40" as="geometry" />
        </mxCell>
        <mxCell id="UfdmuZ-kfko3vVcRpHzJ-188" value="2" style="text;html=1;align=center;verticalAlign=middle;resizable=0;points=[];autosize=1;strokeColor=none;fillColor=none;fontSize=20;fontFamily=Helvetica;" parent="1" vertex="1">
          <mxGeometry x="36" y="572" width="30" height="40" as="geometry" />
        </mxCell>
        <mxCell id="UfdmuZ-kfko3vVcRpHzJ-189" value="3" style="text;html=1;align=center;verticalAlign=middle;resizable=0;points=[];autosize=1;strokeColor=none;fillColor=none;fontSize=20;fontFamily=Helvetica;" parent="1" vertex="1">
          <mxGeometry x="36" y="626" width="30" height="40" as="geometry" />
        </mxCell>
        <mxCell id="UfdmuZ-kfko3vVcRpHzJ-190" value="4" style="text;html=1;align=center;verticalAlign=middle;resizable=0;points=[];autosize=1;strokeColor=none;fillColor=none;fontSize=20;fontFamily=Helvetica;" parent="1" vertex="1">
          <mxGeometry x="308" y="525" width="30" height="40" as="geometry" />
        </mxCell>
        <mxCell id="UfdmuZ-kfko3vVcRpHzJ-191" value="5" style="text;html=1;align=center;verticalAlign=middle;resizable=0;points=[];autosize=1;strokeColor=none;fillColor=none;fontSize=20;fontFamily=Helvetica;" parent="1" vertex="1">
          <mxGeometry x="308" y="571" width="30" height="40" as="geometry" />
        </mxCell>
        <mxCell id="UfdmuZ-kfko3vVcRpHzJ-192" value="6" style="text;html=1;align=center;verticalAlign=middle;resizable=0;points=[];autosize=1;strokeColor=none;fillColor=none;fontSize=20;fontFamily=Helvetica;" parent="1" vertex="1">
          <mxGeometry x="308" y="626" width="30" height="40" as="geometry" />
        </mxCell>
        <mxCell id="UfdmuZ-kfko3vVcRpHzJ-1" value="&lt;font color=&quot;#6666ff&quot;&gt;Book&lt;/font&gt;" style="shape=table;startSize=30;container=1;collapsible=1;childLayout=tableLayout;fixedRows=1;rowLines=0;fontStyle=1;align=center;resizeLast=1;html=1;labelBackgroundColor=none;rounded=0;sketch=1;curveFitting=1;jiggle=2;movable=1;resizable=1;rotatable=1;deletable=1;editable=1;locked=0;connectable=1;flipH=0;flipV=0;" parent="1" vertex="1">
          <mxGeometry x="150" y="60" width="250" height="130" as="geometry">
            <mxRectangle x="41" y="42" width="70" height="30" as="alternateBounds" />
          </mxGeometry>
        </mxCell>
        <mxCell id="UfdmuZ-kfko3vVcRpHzJ-2" value="" style="shape=tableRow;horizontal=0;startSize=0;swimlaneHead=0;swimlaneBody=0;fillColor=none;collapsible=0;dropTarget=0;points=[[0,0.5],[1,0.5]];portConstraint=eastwest;top=0;left=0;right=0;bottom=1;labelBackgroundColor=none;rounded=0;sketch=1;curveFitting=1;jiggle=2;movable=1;resizable=1;rotatable=1;deletable=1;editable=1;locked=0;connectable=1;" parent="UfdmuZ-kfko3vVcRpHzJ-1" vertex="1">
          <mxGeometry y="30" width="250" height="30" as="geometry" />
        </mxCell>
        <mxCell id="UfdmuZ-kfko3vVcRpHzJ-3" value="type" style="shape=partialRectangle;connectable=1;fillColor=none;top=0;left=0;bottom=0;right=0;fontStyle=5;overflow=hidden;whiteSpace=wrap;html=1;labelBackgroundColor=none;rounded=0;sketch=1;curveFitting=1;jiggle=2;movable=1;resizable=1;rotatable=1;deletable=1;editable=1;locked=0;" parent="UfdmuZ-kfko3vVcRpHzJ-2" vertex="1">
          <mxGeometry width="59" height="30" as="geometry">
            <mxRectangle width="59" height="30" as="alternateBounds" />
          </mxGeometry>
        </mxCell>
        <mxCell id="UfdmuZ-kfko3vVcRpHzJ-4" value="properties" style="shape=partialRectangle;connectable=1;fillColor=none;top=0;left=0;bottom=0;right=0;align=left;spacingLeft=6;fontStyle=1;overflow=hidden;whiteSpace=wrap;html=1;labelBackgroundColor=none;rounded=0;sketch=1;curveFitting=1;jiggle=2;movable=1;resizable=1;rotatable=1;deletable=1;editable=1;locked=0;" parent="UfdmuZ-kfko3vVcRpHzJ-2" vertex="1">
          <mxGeometry x="59" width="191" height="30" as="geometry">
            <mxRectangle width="191" height="30" as="alternateBounds" />
          </mxGeometry>
        </mxCell>
        <mxCell id="UfdmuZ-kfko3vVcRpHzJ-5" value="" style="shape=tableRow;horizontal=0;startSize=0;swimlaneHead=0;swimlaneBody=0;fillColor=none;collapsible=0;dropTarget=0;points=[[0,0.5],[1,0.5]];portConstraint=eastwest;top=0;left=0;right=0;bottom=0;labelBackgroundColor=none;rounded=0;sketch=1;curveFitting=1;jiggle=2;movable=1;resizable=1;rotatable=1;deletable=1;editable=1;locked=0;connectable=1;" parent="UfdmuZ-kfko3vVcRpHzJ-1" vertex="1">
          <mxGeometry y="60" width="250" height="4" as="geometry" />
        </mxCell>
        <mxCell id="UfdmuZ-kfko3vVcRpHzJ-6" value="string" style="shape=partialRectangle;connectable=1;fillColor=none;top=0;left=0;bottom=0;right=0;editable=1;overflow=hidden;whiteSpace=wrap;html=1;labelBackgroundColor=none;rounded=0;sketch=1;curveFitting=1;jiggle=2;fontColor=#85700B;movable=1;resizable=1;rotatable=1;deletable=1;locked=0;" parent="UfdmuZ-kfko3vVcRpHzJ-5" vertex="1">
          <mxGeometry width="59" height="4" as="geometry">
            <mxRectangle width="59" height="4" as="alternateBounds" />
          </mxGeometry>
        </mxCell>
        <mxCell id="UfdmuZ-kfko3vVcRpHzJ-7" value="author" style="shape=partialRectangle;connectable=1;fillColor=none;top=0;left=0;bottom=0;right=0;align=left;spacingLeft=6;overflow=hidden;whiteSpace=wrap;html=1;labelBackgroundColor=none;rounded=0;sketch=1;curveFitting=1;jiggle=2;fontColor=#FF3333;movable=1;resizable=1;rotatable=1;deletable=1;editable=1;locked=0;" parent="UfdmuZ-kfko3vVcRpHzJ-5" vertex="1">
          <mxGeometry x="59" width="191" height="4" as="geometry">
            <mxRectangle width="191" height="4" as="alternateBounds" />
          </mxGeometry>
        </mxCell>
        <mxCell id="UfdmuZ-kfko3vVcRpHzJ-8" value="" style="shape=tableRow;horizontal=0;startSize=0;swimlaneHead=0;swimlaneBody=0;fillColor=none;collapsible=0;dropTarget=0;points=[[0,0.5],[1,0.5]];portConstraint=eastwest;top=0;left=0;right=0;bottom=0;labelBackgroundColor=none;rounded=0;sketch=1;curveFitting=1;jiggle=2;movable=1;resizable=1;rotatable=1;deletable=1;editable=1;locked=0;connectable=1;" parent="UfdmuZ-kfko3vVcRpHzJ-1" vertex="1">
          <mxGeometry y="64" width="250" height="16" as="geometry" />
        </mxCell>
        <mxCell id="UfdmuZ-kfko3vVcRpHzJ-9" value="string&amp;nbsp;" style="shape=partialRectangle;connectable=1;fillColor=none;top=0;left=0;bottom=0;right=0;editable=1;overflow=hidden;whiteSpace=wrap;html=1;labelBackgroundColor=none;rounded=0;sketch=1;curveFitting=1;jiggle=2;fontColor=#85700B;movable=1;resizable=1;rotatable=1;deletable=1;locked=0;align=left;fontSize=11;spacingTop=0;spacing=-1;spacingLeft=8;" parent="UfdmuZ-kfko3vVcRpHzJ-8" vertex="1">
          <mxGeometry width="59" height="16" as="geometry">
            <mxRectangle width="59" height="16" as="alternateBounds" />
          </mxGeometry>
        </mxCell>
        <mxCell id="UfdmuZ-kfko3vVcRpHzJ-10" value="author" style="shape=partialRectangle;connectable=1;fillColor=none;top=0;left=0;bottom=0;right=0;align=left;spacingLeft=6;overflow=hidden;whiteSpace=wrap;html=1;labelBackgroundColor=none;rounded=0;sketch=1;curveFitting=1;jiggle=2;fontColor=#FF3333;movable=1;resizable=1;rotatable=1;deletable=1;editable=1;locked=0;fontSize=11;" parent="UfdmuZ-kfko3vVcRpHzJ-8" vertex="1">
          <mxGeometry x="59" width="191" height="16" as="geometry">
            <mxRectangle width="191" height="16" as="alternateBounds" />
          </mxGeometry>
        </mxCell>
        <mxCell id="UfdmuZ-kfko3vVcRpHzJ-11" value="" style="shape=tableRow;horizontal=0;startSize=0;swimlaneHead=0;swimlaneBody=0;fillColor=none;collapsible=0;dropTarget=0;points=[[0,0.5],[1,0.5]];portConstraint=eastwest;top=0;left=0;right=0;bottom=0;labelBackgroundColor=none;rounded=0;sketch=1;curveFitting=1;jiggle=2;movable=1;resizable=1;rotatable=1;deletable=1;editable=1;locked=0;connectable=1;" parent="UfdmuZ-kfko3vVcRpHzJ-1" vertex="1">
          <mxGeometry y="80" width="250" height="16" as="geometry" />
        </mxCell>
        <mxCell id="UfdmuZ-kfko3vVcRpHzJ-12" value="number " style="shape=partialRectangle;connectable=1;fillColor=none;top=0;left=0;bottom=0;right=0;editable=1;overflow=hidden;whiteSpace=wrap;html=1;labelBackgroundColor=none;rounded=0;sketch=1;curveFitting=1;jiggle=2;fontColor=#85700B;movable=1;resizable=1;rotatable=1;deletable=1;locked=0;align=left;fontSize=11;spacingTop=0;spacing=-1;spacingLeft=8;" parent="UfdmuZ-kfko3vVcRpHzJ-11" vertex="1">
          <mxGeometry width="59" height="16" as="geometry">
            <mxRectangle width="59" height="16" as="alternateBounds" />
          </mxGeometry>
        </mxCell>
        <mxCell id="UfdmuZ-kfko3vVcRpHzJ-13" value="ibsn" style="shape=partialRectangle;connectable=1;fillColor=none;top=0;left=0;bottom=0;right=0;align=left;spacingLeft=6;overflow=hidden;whiteSpace=wrap;html=1;labelBackgroundColor=none;rounded=0;sketch=1;curveFitting=1;jiggle=2;fontColor=#FF3333;movable=1;resizable=1;rotatable=1;deletable=1;editable=1;locked=0;fontSize=11;" parent="UfdmuZ-kfko3vVcRpHzJ-11" vertex="1">
          <mxGeometry x="59" width="191" height="16" as="geometry">
            <mxRectangle width="191" height="16" as="alternateBounds" />
          </mxGeometry>
        </mxCell>
        <mxCell id="dZP9JO7o1C7DPY67EZml-9" value="" style="shape=tableRow;horizontal=0;startSize=0;swimlaneHead=0;swimlaneBody=0;fillColor=none;collapsible=0;dropTarget=0;points=[[0,0.5],[1,0.5]];portConstraint=eastwest;top=0;left=0;right=0;bottom=0;labelBackgroundColor=none;rounded=0;sketch=1;curveFitting=1;jiggle=2;movable=1;resizable=1;rotatable=1;deletable=1;editable=1;locked=0;connectable=1;" vertex="1" parent="UfdmuZ-kfko3vVcRpHzJ-1">
          <mxGeometry y="96" width="250" height="16" as="geometry" />
        </mxCell>
        <mxCell id="dZP9JO7o1C7DPY67EZml-10" value="string" style="shape=partialRectangle;connectable=1;fillColor=none;top=0;left=0;bottom=0;right=0;editable=1;overflow=hidden;whiteSpace=wrap;html=1;labelBackgroundColor=none;rounded=0;sketch=1;curveFitting=1;jiggle=2;fontColor=#85700B;movable=1;resizable=1;rotatable=1;deletable=1;locked=0;align=left;fontSize=11;spacingTop=0;spacing=-1;spacingLeft=8;" vertex="1" parent="dZP9JO7o1C7DPY67EZml-9">
          <mxGeometry width="59" height="16" as="geometry">
            <mxRectangle width="59" height="16" as="alternateBounds" />
          </mxGeometry>
        </mxCell>
        <mxCell id="dZP9JO7o1C7DPY67EZml-11" value="title" style="shape=partialRectangle;connectable=1;fillColor=none;top=0;left=0;bottom=0;right=0;align=left;spacingLeft=6;overflow=hidden;whiteSpace=wrap;html=1;labelBackgroundColor=none;rounded=0;sketch=1;curveFitting=1;jiggle=2;fontColor=#FF3333;movable=1;resizable=1;rotatable=1;deletable=1;editable=1;locked=0;fontSize=11;" vertex="1" parent="dZP9JO7o1C7DPY67EZml-9">
          <mxGeometry x="59" width="191" height="16" as="geometry">
            <mxRectangle width="191" height="16" as="alternateBounds" />
          </mxGeometry>
        </mxCell>
        <mxCell id="dZP9JO7o1C7DPY67EZml-12" value="" style="shape=tableRow;horizontal=0;startSize=0;swimlaneHead=0;swimlaneBody=0;fillColor=none;collapsible=0;dropTarget=0;points=[[0,0.5],[1,0.5]];portConstraint=eastwest;top=0;left=0;right=0;bottom=0;labelBackgroundColor=none;rounded=0;sketch=1;curveFitting=1;jiggle=2;movable=1;resizable=1;rotatable=1;deletable=1;editable=1;locked=0;connectable=1;" vertex="1" parent="UfdmuZ-kfko3vVcRpHzJ-1">
          <mxGeometry y="112" width="250" height="16" as="geometry" />
        </mxCell>
        <mxCell id="dZP9JO7o1C7DPY67EZml-13" value="bool" style="shape=partialRectangle;connectable=1;fillColor=none;top=0;left=0;bottom=0;right=0;editable=1;overflow=hidden;whiteSpace=wrap;html=1;labelBackgroundColor=none;rounded=0;sketch=1;curveFitting=1;jiggle=2;fontColor=#85700B;movable=1;resizable=1;rotatable=1;deletable=1;locked=0;align=left;fontSize=11;spacingTop=0;spacing=-1;spacingLeft=8;" vertex="1" parent="dZP9JO7o1C7DPY67EZml-12">
          <mxGeometry width="59" height="16" as="geometry">
            <mxRectangle width="59" height="16" as="alternateBounds" />
          </mxGeometry>
        </mxCell>
        <mxCell id="dZP9JO7o1C7DPY67EZml-14" value="available" style="shape=partialRectangle;connectable=1;fillColor=none;top=0;left=0;bottom=0;right=0;align=left;spacingLeft=6;overflow=hidden;whiteSpace=wrap;html=1;labelBackgroundColor=none;rounded=0;sketch=1;curveFitting=1;jiggle=2;fontColor=#FF3333;movable=1;resizable=1;rotatable=1;deletable=1;editable=1;locked=0;fontSize=11;" vertex="1" parent="dZP9JO7o1C7DPY67EZml-12">
          <mxGeometry x="59" width="191" height="16" as="geometry">
            <mxRectangle width="191" height="16" as="alternateBounds" />
          </mxGeometry>
        </mxCell>
        <mxCell id="dZP9JO7o1C7DPY67EZml-38" value="" style="shape=image;verticalAlign=top;verticalLabelPosition=bottom;labelBackgroundColor=#ffffff;imageAspect=0;aspect=fixed;image=https://cdn1.iconfinder.com/data/icons/hawcons/32/699458-icon-27-one-finger-click-128.png;hachureGap=4;fontFamily=Architects Daughter;fontSource=https%3A%2F%2Ffonts.googleapis.com%2Fcss%3Ffamily%3DArchitects%2BDaughter;sketch=1;curveFitting=1;jiggle=2;imageBorder=none;imageBackground=none;labelBorderColor=none;textShadow=0;html=1;" vertex="1" parent="1">
          <mxGeometry x="144" y="833" width="20" height="20" as="geometry" />
        </mxCell>
      </root>
    </mxGraphModel>
  </diagram>
</mxfile>
